<mxfile host="65bd71144e">
    <diagram id="Tu5SSi96cI27miHIp3wU" name="第 1 页">
        <mxGraphModel dx="714" dy="563" grid="1" gridSize="10" guides="1" tooltips="1" connect="1" arrows="1" fold="1" page="1" pageScale="1" pageWidth="827" pageHeight="1169" math="0" shadow="0">
            <root>
                <mxCell id="0"/>
                <mxCell id="1" parent="0"/>
                <mxCell id="2" value="_inputing" style="rounded=0;whiteSpace=wrap;html=1;fontFamily=Verdana;" vertex="1" parent="1">
                    <mxGeometry x="270" y="50" width="110" height="40" as="geometry"/>
                </mxCell>
                <mxCell id="3" value="Key Which&lt;br&gt;&lt;br&gt;Alt&lt;br&gt;&lt;br&gt;Ctrl&lt;br&gt;&lt;br&gt;Shift&lt;br&gt;&lt;br&gt;Meta/Cmd" style="rounded=0;whiteSpace=wrap;fontFamily=Verdana;spacingTop=0;labelBorderColor=none;html=1;align=left;verticalAlign=middle;spacing=10;" vertex="1" parent="1">
                    <mxGeometry x="60" y="300" width="100" height="170" as="geometry"/>
                </mxCell>
                <mxCell id="4" value="item | icon | value | tip" style="rounded=0;whiteSpace=wrap;html=1;fontFamily=Verdana;" vertex="1" parent="1">
                    <mxGeometry x="309" y="400" width="210" height="40" as="geometry"/>
                </mxCell>
                <mxCell id="5" value="&amp;lt;Input&amp;gt;" style="rounded=1;whiteSpace=wrap;html=1;fontFamily=Verdana;fillColor=#e51400;strokeColor=#B20000;fontColor=#ffffff;" vertex="1" parent="1">
                    <mxGeometry x="400" y="250" width="106" height="40" as="geometry"/>
                </mxCell>
                <mxCell id="6" value="keyup" style="rounded=0;whiteSpace=wrap;html=1;fontFamily=Verdana;fillColor=#0050ef;fontColor=#ffffff;strokeColor=#001DBC;" vertex="1" parent="1">
                    <mxGeometry x="210" y="210" width="110" height="40" as="geometry"/>
                </mxCell>
                <mxCell id="8" value="keydown" style="rounded=0;whiteSpace=wrap;html=1;fontFamily=Verdana;fillColor=#0050ef;fontColor=#ffffff;strokeColor=#001DBC;" vertex="1" parent="1">
                    <mxGeometry x="210" y="300" width="110" height="40" as="geometry"/>
                </mxCell>
                <mxCell id="9" value="_focused" style="rounded=0;whiteSpace=wrap;html=1;fontFamily=Verdana;" vertex="1" parent="1">
                    <mxGeometry x="60" y="230" width="100" height="40" as="geometry"/>
                </mxCell>
                <mxCell id="10" value="_selection" style="rounded=0;whiteSpace=wrap;html=1;fontFamily=Verdana;" vertex="1" parent="1">
                    <mxGeometry x="60" y="160" width="100" height="40" as="geometry"/>
                </mxCell>
                <mxCell id="11" value="_logic_type" style="rounded=0;whiteSpace=wrap;html=1;fontFamily=Verdana;" vertex="1" parent="1">
                    <mxGeometry x="430" y="50" width="100" height="40" as="geometry"/>
                </mxCell>
                <mxCell id="12" value="_prefix_suffix" style="rounded=0;whiteSpace=wrap;html=1;fontFamily=Verdana;" vertex="1" parent="1">
                    <mxGeometry x="600" y="140" width="100" height="40" as="geometry"/>
                </mxCell>
                <mxCell id="13" value="_optiions" style="rounded=0;whiteSpace=wrap;html=1;fontFamily=Verdana;" vertex="1" parent="1">
                    <mxGeometry x="600" y="300" width="100" height="40" as="geometry"/>
                </mxCell>
            </root>
        </mxGraphModel>
    </diagram>
</mxfile>